<svg xmlns="http://www.w3.org/2000/svg" viewBox="0 0 32 32" width="512" height="512">
  <rect width="32" height="32" fill="white"/>
  <line x1="16" y1="6" x2="24" y2="11" stroke="#2563eb" stroke-width="1.2" opacity="0.5"/>
  <line x1="16" y1="6" x2="8" y2="11" stroke="#2563eb" stroke-width="1.2" opacity="0.5"/>
  <line x1="16" y1="6" x2="16" y2="16" stroke="#2563eb" stroke-width="1.2" opacity="0.5"/>
  <line x1="24" y1="11" x2="26" y2="20" stroke="#2563eb" stroke-width="1.2" opacity="0.5"/>
  <line x1="8" y1="11" x2="6" y2="20" stroke="#2563eb" stroke-width="1.2" opacity="0.5"/>
  <line x1="16" y1="16" x2="26" y2="20" stroke="#2563eb" stroke-width="1.2" opacity="0.5"/>
  <line x1="16" y1="16" x2="6" y2="20" stroke="#2563eb" stroke-width="1.2" opacity="0.5"/>
  <line x1="6" y1="20" x2="11" y2="27" stroke="#2563eb" stroke-width="1.2" opacity="0.5"/>
  <line x1="26" y1="20" x2="21" y2="27" stroke="#2563eb" stroke-width="1.2" opacity="0.5"/>
  <line x1="16" y1="16" x2="11" y2="27" stroke="#2563eb" stroke-width="1.2" opacity="0.5"/>
  <line x1="16" y1="16" x2="21" y2="27" stroke="#2563eb" stroke-width="1.2" opacity="0.5"/>
  <line x1="11" y1="27" x2="21" y2="27" stroke="#2563eb" stroke-width="1.2" opacity="0.5"/>
  <line x1="24" y1="11" x2="16" y2="16" stroke="#2563eb" stroke-width="1.4" opacity="0.6"/>
  <line x1="8" y1="11" x2="16" y2="16" stroke="#2563eb" stroke-width="1.4" opacity="0.6"/>
  <path fill="none" stroke="#2563eb" stroke-width="1.3" stroke-linecap="round" stroke-linejoin="round" opacity="0.9" d="M8 11 C 12 6, 20 16, 24 11"/>
  <path fill="none" stroke="#2563eb" stroke-width="1.3" stroke-linecap="round" stroke-linejoin="round" opacity="0.9" d="M6 20 C 12 12, 20 28, 26 20"/>
  <path fill="none" stroke="#2563eb" stroke-width="1.3" stroke-linecap="round" stroke-linejoin="round" opacity="0.9" d="M11 27 C 14 21, 18 21, 21 27"/>
  <circle cx="16" cy="6" r="2.5" fill="#2563eb"/>
  <circle cx="24" cy="11" r="2" fill="#2563eb"/>
  <circle cx="8" cy="11" r="2" fill="#2563eb"/>
  <circle cx="16" cy="16" r="3" fill="#2563eb"/>
  <circle cx="26" cy="20" r="1.8" fill="#2563eb"/>
  <circle cx="6" cy="20" r="1.8" fill="#2563eb"/>
  <circle cx="21" cy="27" r="2" fill="#2563eb"/>
  <circle cx="11" cy="27" r="2" fill="#2563eb"/>

</svg>